<?xml version="1.0" encoding="UTF-8" standalone="no"?>
<!-- Created with Inkscape (http://www.inkscape.org/) -->

<svg
   xmlns:dc="http://purl.org/dc/elements/1.1/"
   xmlns:cc="http://creativecommons.org/ns#"
   xmlns:rdf="http://www.w3.org/1999/02/22-rdf-syntax-ns#"
   xmlns:svg="http://www.w3.org/2000/svg"
   xmlns="http://www.w3.org/2000/svg"
   xmlns:sodipodi="http://sodipodi.sourceforge.net/DTD/sodipodi-0.dtd"
   xmlns:inkscape="http://www.inkscape.org/namespaces/inkscape"
   width="1366px"
   height="768px"
   viewBox="0 0 1366 768"
   version="1.1"
   id="SVGRoot"
   inkscape:version="0.92.3 (2405546, 2018-03-11)"
   sodipodi:docname="banner.svg">
  <sodipodi:namedview
     id="base"
     pagecolor="#ffffff"
     bordercolor="#666666"
     borderopacity="1.0"
     inkscape:pageopacity="0.0"
     inkscape:pageshadow="2"
     inkscape:zoom="0.35"
     inkscape:cx="683"
     inkscape:cy="406.13812"
     inkscape:document-units="px"
     inkscape:current-layer="layer1"
     showgrid="false"
     inkscape:window-width="1280"
     inkscape:window-height="657"
     inkscape:window-x="0"
     inkscape:window-y="32"
     inkscape:window-maximized="1" />
  <defs
     id="defs151" />
  <metadata
     id="metadata154">
    <rdf:RDF>
      <cc:Work
         rdf:about="">
        <dc:format>image/svg+xml</dc:format>
        <dc:type
           rdf:resource="http://purl.org/dc/dcmitype/StillImage" />
        <dc:title></dc:title>
      </cc:Work>
    </rdf:RDF>
  </metadata>
  <g
     id="layer1"
     inkscape:groupmode="layer"
     inkscape:label="Layer 1">
    <text
       xml:space="preserve"
       style="font-style:normal;font-weight:normal;font-size:40px;line-height:1.25;font-family:sans-serif;letter-spacing:0px;word-spacing:0px;fill:#000000;fill-opacity:1;stroke:none"
       x="114.28571"
       y="222.28571"
       id="text169"><tspan
         sodipodi:role="line"
         id="tspan167"
         x="114.28571"
         y="257.67633" /></text>
    <path
       style="fill:#404040;fill-opacity:1"
       id="path179"
       d="m 358.46182,-0.02636107 c 4.91688,12.76358407 9.44893,25.68214907 14.75062,38.29075207 5.86295,13.943444 33.3057,73.063879 39.56761,86.595179 13.34111,28.82866 22.30299,47.50219 34.66673,76.26254 4.35215,10.12391 8.41139,20.37124 12.61708,30.55685 9.87342,27.00806 19.9322,54.4613 24.25943,83.04149 1.85922,12.27962 1.53945,15.37195 1.75076,27.37982 -0.4085,15.71542 -4.01411,31.28104 -10.62987,45.56467 -3.76429,8.12722 -6.988,12.45338 -11.94407,20.10642 -53.38908,57.43533 -112.36014,109.42789 -171.19269,161.17013 -46.98327,44.83887 -93.17443,90.50725 -138.20053,137.31174 -7.08834,7.21081 -13.79991,14.77271 -20.60425,22.24729 0,0 -38.079073,15.89868 -38.079073,15.89868 v 0 c 7.600243,-7.76448 14.912683,-15.80349 22.821953,-23.26404 47.31298,-46.80119 95.05921,-93.1633 142.82904,-139.49646 44.80613,-39.13845 89.93328,-78.18372 131.5167,-120.80071 7.16897,-7.34716 13.86188,-15.14434 20.82749,-22.68457 4.397,-4.75974 8.84007,-9.47672 13.2601,-14.21508 3.18211,-4.90362 9.23072,-13.89716 11.99398,-19.33331 6.98891,-13.74921 10.76179,-28.93852 11.64282,-44.28942 0.23862,-12.05488 0.66541,-14.72907 -0.73303,-27.1415 -3.23823,-28.74223 -12.04035,-56.64225 -20.8056,-84.05921 -3.80918,-10.36496 -7.41348,-20.80754 -11.42754,-31.09489 C 390.69131,149.6996 357.79308,83.993933 325.1472,18.405035 c 0,0 33.31462,-18.43139607 33.31462,-18.43139607 z"
       inkscape:connector-curvature="0" />
    <path
       style="fill:#404040;fill-opacity:1"
       id="path181"
       d="m 72.56234,718.07762 c -0.122205,-17.08153 2.315223,-33.83643 5.659688,-50.53543 3.373361,-19.61059 8.233227,-38.86649 14.3427,-57.78877 2.629705,-5.64669 3.890582,-11.84732 6.466369,-17.51162 4.784373,-10.5211 12.353203,-23.42777 17.842533,-33.38028 16.44892,-29.82298 5.55006,-11.58732 26.67057,-44.45037 5.63772,-8.25559 10.91792,-16.76704 16.91316,-24.76677 7.30581,-9.74847 15.15983,-19.07658 22.95833,-28.43557 21.76865,-26.12456 44.54579,-51.59037 69.05305,-75.19323 6.69841,-6.45123 13.72512,-12.55265 20.58769,-18.82897 19.57943,-17.11756 39.36164,-34.16388 61.1481,-48.4567 13.32849,-8.74404 51.90317,-30.17818 53.32965,-30.9946 0,0 -31.79332,25.62254 -31.79332,25.62254 v 0 c 8.76904,-5.16246 17.54895,-10.30648 26.30711,-15.48738 3.64614,-2.15687 -7.37773,4.17139 -10.97098,6.41528 -22.81093,14.24485 -43.46112,31.57468 -63.89305,48.971 -7.09127,6.30481 -14.35268,12.4233 -21.2738,18.91443 -33.28453,31.21665 -64.85538,66.18268 -91.99183,102.87609 -5.88801,7.96165 -11.15836,16.36207 -16.73754,24.5431 -20.09482,32.57646 -9.18344,13.69016 -25.07469,43.49159 -6.27177,11.76167 -11.15821,19.77871 -16.17692,31.88643 -2.35067,5.67105 -3.30788,11.86586 -6.2307,17.33078 -6.33901,18.83481 -11.86225,37.9401 -15.09594,57.58715 -3.11801,16.17052 -5.88314,32.42756 -4.30772,48.96565 0,0 -37.73246,19.22565 -37.73246,19.22565 z"
       inkscape:connector-curvature="0" />
    <path
       style="fill:#404040;fill-opacity:1"
       id="path183"
       d="m 596.97773,238.43271 c 22.26036,0.37517 43.75152,7.67331 64.94106,13.85345 14.76462,4.30737 29.26821,9.38897 43.82215,14.33322 4.31023,1.46426 8.77893,2.4938 12.97703,4.25392 12.98146,5.44268 18.55989,10.59962 30.78353,19.1826 20.07327,15.52155 42.12362,28.58882 61.68897,44.78522 7.62298,6.31038 14.67725,13.27784 22.00503,19.92873 36.6726,33.28506 19.58138,17.27605 56.67386,53.47711 49.65594,54.17665 101.48046,106.33267 157.03054,154.49009 31.9694,27.71488 42.9818,35.82124 75.0262,61.0464 31.4641,23.77983 65.5419,44.26845 103.4141,55.92837 14.0237,4.31756 19.2706,4.84784 33.0944,7.2884 15.8099,1.70734 8.298,0.97188 22.5314,2.24975 0,0 -33.2215,23.58343 -33.2215,23.58343 v 0 c -13.7549,-1.81146 -6.4758,-0.77251 -21.8287,-3.17727 -13.3902,-3.02079 -18.6981,-3.84041 -32.212,-8.65248 -36.9567,-13.15963 -69.8787,-34.75448 -100.1254,-59.45539 -80.6377,-68.42063 -159.014,-139.57899 -232.81194,-215.38173 -9.90638,-9.32196 -19.55292,-18.928 -29.71913,-27.96588 -9.3764,-8.33574 -19.28063,-16.05826 -28.88324,-24.13236 -7.57093,-6.36582 -14.91372,-13.00714 -22.63706,-19.18716 -19.84548,-15.87983 -41.21361,-29.81108 -62.12553,-44.20393 -11.50452,-6.80754 -19.78516,-12.45934 -31.75407,-17.37597 -4.191,-1.72158 -8.57953,-2.91678 -12.85484,-4.41679 -14.40925,-5.05555 -28.798,-10.16753 -43.53262,-14.23188 -21.64137,-6.056 -43.75491,-12.79544 -66.48377,-11.37098 0,0 34.20153,-24.84887 34.20153,-24.84887 z"
       inkscape:connector-curvature="0" />
    <path
       style="fill:#404040;fill-opacity:1"
       id="path185"
       d="m 1325.5485,510.30208 c -1.1959,-1.90529 -2.6234,-3.68352 -3.5876,-5.71586 -3.3737,-7.11087 -6.2671,-14.43984 -9.4006,-21.65976 -4.3383,-9.13204 -8.5689,-18.31605 -13.0149,-27.39614 -13.1384,-26.83262 -27.2537,-53.08364 -41.7492,-79.19802 -13.5412,-23.64943 -10.1992,-18.09682 -23.5426,-40.3587 -3.3473,-5.58453 -7.2035,-10.88806 -10.0951,-16.72159 -3.4684,-6.99701 -5.8619,-14.47817 -8.93,-21.65968 -5.1495,-12.05334 -10.1804,-24.16375 -15.7217,-36.04209 -6.291,-13.48559 -13.1768,-26.68565 -19.7652,-40.02847 -20.1309,-38.14913 -21.2273,-40.90571 -42.0049,-77.69736 -6.3208,-11.19247 -13.1404,-22.10426 -19.2483,-33.41427 -5.8815,-10.890605 -11.1485,-22.102089 -16.706,-33.161504 C 1074.8297,23.613486 1090.4287,53.886067 1062.6231,0.95693692 1038.4404,-44.543096 1012.2115,-89.148372 991.98356,-136.63744 c -2.69208,-6.32021 -5.06647,-12.77108 -7.59971,-19.15662 -7.85964,-21.59129 -4.15047,-11.20209 -11.15703,-31.15703 0,0 34.71358,-19.10436 34.71358,-19.10436 v 0 c 6.2579,20.2482 2.9148,9.7251 10.0727,31.55544 20.0687,54.99261 46.5582,107.009933 73.9217,158.69245 6.6041,12.6196273 13.1304,25.2802537 19.8122,37.858881 6.7324,12.673892 13.8355,25.150898 20.4297,37.897247 5.664,10.948337 10.6551,22.236668 16.3387,33.174853 5.9346,11.421139 12.3874,22.565629 18.508,33.888159 6.9653,12.88512 35.2789,65.96377 41.6946,77.98141 6.9286,13.17059 13.7682,26.38836 20.7857,39.51177 6.1765,11.55064 12.8585,22.83281 18.7953,34.50847 3.4557,6.79612 5.942,14.05484 9.3626,20.86868 2.9239,5.82453 6.4499,11.32687 9.65,17.0044 12.8036,22.71625 9.5471,16.95705 22.5417,41.04801 20.8323,39.16581 5.4731,9.96256 26.7099,51.27909 12.9524,25.19913 25.4582,50.65408 41.0915,74.33772 1.226,1.85726 2.7495,3.5 4.1242,5.25001 0,0 -36.2304,21.50094 -36.2304,21.50094 z"
       inkscape:connector-curvature="0" />
    <path
       style="fill:#404040;fill-opacity:1"
       id="path187"
       d="m 804.21869,-81.817934 c -6.65454,15.493643 -12.94555,31.150945 -19.94389,46.496735 -8.91332,19.821324 -18.72282,39.1857084 -28.57038,58.552635 -10.3907,20.964629 -17.66065,43.155309 -23.79262,65.672346 -3.77224,15.036788 -8.36578,29.860178 -11.53507,45.043968 -0.20214,1.15857 -0.40427,2.31714 -0.6064,3.47571 0,0 -37.85118,18.39195 -37.85118,18.39195 v 0 c 0.25441,-1.22387 0.50882,-2.44774 0.76323,-3.67161 3.52937,-15.50067 8.93774,-30.48572 12.83674,-45.89086 6.07822,-22.675771 13.10561,-45.061141 23.18543,-66.329233 9.95959,-19.213104 19.75594,-38.479251 28.46283,-58.300182 6.81727,-14.877058 13.22906,-29.992034 18.67544,-45.418715 0,0 38.37587,-18.022744 38.37587,-18.022744 z"
       inkscape:connector-curvature="0" />
    <path
       style="fill:#404040;fill-opacity:1"
       id="path189"
       d="m 684.14798,438.45545 c -2.23512,4.90547 -3.22634,10.27471 -5.31933,15.22707 -7.14227,16.89977 -15.24157,33.38253 -22.47215,50.24469 -3.3191,7.74034 -20.28823,48.60086 -23.67133,56.73546 -3.68506,8.84215 -7.76627,17.52943 -11.05519,26.52645 -4.37039,11.95548 -7.90012,24.20182 -11.90569,36.28442 -10.00538,30.18077 -36.42911,109.81803 -46.04643,134.33757 -19.64381,50.08229 -60.59998,139.81488 -82.75038,189.18224 -30.37362,66.06725 -62.01646,131.66765 -99.48568,194.05875 -11.95187,19.9013 -25.68029,41.0696 -40.14911,59.5119 -4.3328,5.5227 -9.21339,10.5927 -13.82009,15.8891 -17.24595,18.244 -35.32768,25.5175 -58.54893,38.7339 0,0 32.41962,-25.9211 32.41962,-25.9211 v 0 c -75.68668,45.1705 -26.12796,16.0679 -20.83142,12.0048 4.08426,-3.133 7.81921,-6.6969 11.72881,-10.0454 5.24918,-5.4499 10.79442,-10.6294 15.74754,-16.3497 16.30141,-18.8263 32.01766,-40.8213 45.5171,-61.4388 41.20844,-62.9372 75.98282,-129.7402 108.19549,-197.64903 33.29303,-73.94037 51.66588,-110.55863 78.60979,-186.98727 14.28387,-40.51736 26.36918,-88.45899 37.91859,-130.43468 3.29003,-11.95743 6.02908,-24.09016 10.04551,-35.82357 3.12631,-9.13304 7.55928,-17.7652 11.33892,-26.6478 10.55427,-25.07146 13.29425,-31.37384 23.60851,-56.71519 5.98157,-14.69626 13.3931,-32.69525 18.63765,-48.02792 1.62803,-4.75961 2.48543,-9.75722 4.05376,-14.53638 0,0 38.23444,-18.15951 38.23444,-18.15951 z"
       inkscape:connector-curvature="0" />
  </g>
</svg>
